<?xml version="1.0" encoding="UTF-8" standalone="no"?>
<svg
   version="1.1"
   preserveAspectRatio="xMidYMid meet"
   viewBox="-1 3 204.9187 36.09"
   width="202.6519"
   height="33.400497"
   id="svg33"
   sodipodi:docname="logo.svg"
   inkscape:version="1.1 (c68e22c387, 2021-05-23)"
   xmlns:inkscape="http://www.inkscape.org/namespaces/inkscape"
   xmlns:sodipodi="http://sodipodi.sourceforge.net/DTD/sodipodi-0.dtd"
   xmlns:xlink="http://www.w3.org/1999/xlink"
   xmlns="http://www.w3.org/2000/svg"
   xmlns:svg="http://www.w3.org/2000/svg"
   xmlns:rdf="http://www.w3.org/1999/02/22-rdf-syntax-ns#"
   xmlns:cc="http://creativecommons.org/ns#"
   xmlns:dc="http://purl.org/dc/elements/1.1/">
  <metadata
     id="metadata37">
    <rdf:RDF>
      <cc:Work
         rdf:about="">
        <dc:format>image/svg+xml</dc:format>
        <dc:type
           rdf:resource="http://purl.org/dc/dcmitype/StillImage" />
      </cc:Work>
    </rdf:RDF>
  </metadata>
  <sodipodi:namedview
     pagecolor="#ffffff"
     bordercolor="#666666"
     borderopacity="1"
     objecttolerance="10"
     gridtolerance="10"
     guidetolerance="10"
     inkscape:pageopacity="0"
     inkscape:pageshadow="2"
     inkscape:window-width="1920"
     inkscape:window-height="1177"
     id="namedview35"
     showgrid="false"
     lock-margins="true"
     fit-margin-top="0"
     fit-margin-left="0"
     fit-margin-right="0"
     fit-margin-bottom="0"
     inkscape:pagecheckerboard="true"
     inkscape:zoom="4.1208347"
     inkscape:cx="124.61068"
     inkscape:cy="-6.1880667"
     inkscape:window-x="-8"
     inkscape:window-y="-8"
     inkscape:window-maximized="1"
     inkscape:current-layer="g13" />
  <defs
     id="defs5">
    <path
       d="m 0,48.92 30.08,-27.23 10.27,9.92 5.02,-4.15 c 3.01,3.32 4.69,5.16 5.02,5.53 0,0 10.53,-8.31 14.17,-16.15 0,0 13.7,11.08 30.6,0 1.4,0 8.42,0 21.06,0 l 2.73,5.07 3.66,-2.31 6.85,4.56 18.73,-9.22 10.52,8.77 10.53,-4.56 11.88,10.15 4.51,-2.77 11.88,11.54 12.33,-3.69 7.76,6 -7.31,-2.77 8.68,5.08 v 1.84 l -16.44,-1.39 -15.98,-6.45 10.96,12 -19.11,-12 3.16,8.26 -14.17,-14.31 h -10.96 l -11.42,-12.01 -17.35,8.31 -5.47,-4.55 -2.74,1.83 15.53,15.7 L 115.34,29.28 130.85,51.03 102.98,28.42 104.8,41.81 84.71,24.27 67.81,22.43 80.59,47.81 58.21,31.2 l -5.47,4.56 -7.31,-4.56 -0.92,6 -12.78,-12 -5.47,3.69 -0.92,7.84 h -8.23 l 6.64,12.19 z"
       id="b3edbKIGNV" />
    <path
       d="m 263.9,22 v -7.31 h -6.86 V 22 h -3.52 V 4.94 h 3.52 v 6.91 h 6.86 V 4.94 h 3.51 V 22 Z m 7.3,-1.48 c -1.16,-1.14 -1.75,-2.66 -1.75,-4.56 0,-0.03 0,-0.29 0,-0.32 0,-1.28 0.25,-2.41 0.74,-3.41 0.49,-1.01 1.19,-1.78 2.09,-2.32 0.9,-0.55 1.93,-0.82 3.09,-0.82 1.74,0 3.1,0.54 4.09,1.64 1,1.09 1.5,2.64 1.5,4.65 0,0.09 0,0.55 0,1.38 -4.84,0 -7.54,0 -8.07,0 0.11,0.83 0.43,1.49 0.98,1.99 0.56,0.5 1.25,0.75 2.1,0.75 1.3,0 2.32,-0.47 3.06,-1.41 0.16,0.18 1.49,1.67 1.66,1.86 -0.51,0.72 -1.19,1.28 -2.06,1.69 -0.87,0.4 -1.83,0.59 -2.88,0.59 -1.86,0 -3.38,-0.57 -4.55,-1.71 z m 2.52,-8.01 c -0.42,0.45 -0.68,1.1 -0.8,1.94 0.32,0 1.89,0 4.71,0 0,-0.16 0,-0.25 0,-0.27 -0.01,-0.75 -0.22,-1.32 -0.61,-1.73 -0.39,-0.41 -0.94,-0.62 -1.66,-0.62 -0.67,0 -1.22,0.22 -1.64,0.68 z m 15.82,8.35 c -0.82,0.92 -1.89,1.37 -3.2,1.37 -1.24,0 -2.27,-0.35 -3.09,-1.07 -0.81,-0.72 -1.22,-1.63 -1.22,-2.72 0,-1.35 0.5,-2.38 1.49,-3.1 1,-0.71 2.44,-1.08 4.32,-1.09 0.11,0 0.63,0 1.56,0 0,-0.43 0,-0.67 0,-0.72 0,-0.59 -0.15,-1.06 -0.46,-1.41 -0.29,-0.35 -0.76,-0.53 -1.41,-0.53 -0.57,0 -1.02,0.14 -1.35,0.41 -0.32,0.28 -0.48,0.65 -0.48,1.13 -0.34,0 -3.05,0 -3.39,0 0,-0.74 0.23,-1.42 0.68,-2.04 0.45,-0.63 1.09,-1.11 1.92,-1.46 0.83,-0.36 1.76,-0.54 2.79,-0.54 1.56,0 2.8,0.39 3.72,1.18 0.92,0.78 1.38,1.88 1.38,3.3 0,0.55 0,4.95 0,5.5 0.01,1.2 0.18,2.11 0.5,2.73 0,0.01 0,0.08 0,0.2 h -3.42 c -0.18,-0.46 -0.29,-0.83 -0.34,-1.14 z m -1.08,-1.54 c 0.43,-0.23 0.74,-0.53 0.94,-0.91 0,-0.14 0,-0.87 0,-2.18 -0.76,0 -1.18,0 -1.26,0 -1.7,0 -2.6,0.59 -2.71,1.76 0,0.02 -0.01,0.18 -0.01,0.2 0,0.42 0.15,0.77 0.44,1.04 0.3,0.28 0.71,0.41 1.22,0.41 0.5,0 0.96,-0.1 1.38,-0.32 z M 295.22,22 V 4 h 3.4 v 18 z m 9.89,-12.68 h 2.17 v 2.48 h -2.17 c 0,3.8 0,5.91 0,6.33 0,0.47 0.09,0.81 0.27,1.01 0.18,0.2 0.52,0.31 1.03,0.31 0.38,0 0.71,-0.03 1,-0.09 0,0.26 0,2.31 0,2.57 -0.67,0.2 -1.35,0.3 -2.05,0.3 -2.38,0 -3.59,-1.19 -3.64,-3.59 0,-0.46 0,-2.74 0,-6.84 h -1.85 V 9.32 h 1.85 V 6.2 h 3.39 z M 315.5,9.09 c 2.75,0 4.14,1.59 4.18,4.79 0,0.54 0,3.25 0,8.12 h -3.39 c 0,-4.82 0,-7.49 0,-8.03 0,-0.72 -0.15,-1.26 -0.46,-1.6 -0.32,-0.35 -0.84,-0.53 -1.56,-0.53 -1,0 -1.71,0.38 -2.16,1.15 0,0.6 0,3.6 0,9.01 h -3.39 V 4 h 3.39 v 6.7 c 1.35,-1.08 2.48,-1.61 3.39,-1.61 z"
       id="amUIMKnsD" />
    <path
       d="m 261.67,47.5 c -0.47,-0.36 -1.31,-0.73 -2.53,-1.12 -1.22,-0.4 -2.19,-0.79 -2.9,-1.18 -1.93,-1.04 -2.9,-2.45 -2.9,-4.23 0,-0.92 0.25,-1.74 0.77,-2.46 0.52,-0.72 1.27,-1.29 2.24,-1.7 0.97,-0.4 2.07,-0.61 3.28,-0.61 1.22,0 2.3,0.23 3.26,0.67 0.95,0.44 1.69,1.06 2.21,1.86 0.53,0.81 0.8,1.72 0.8,2.75 -0.35,0 -3.17,0 -3.52,0 0,-0.78 -0.24,-1.39 -0.73,-1.82 -0.5,-0.44 -1.19,-0.66 -2.08,-0.66 -0.86,0 -1.53,0.19 -2,0.55 -0.48,0.36 -0.72,0.84 -0.72,1.43 0,0.56 0.28,1.02 0.83,1.4 0.57,0.37 1.39,0.73 2.48,1.05 2,0.61 3.45,1.35 4.37,2.24 0.91,0.89 1.37,2 1.37,3.33 0,1.48 -0.56,2.64 -1.68,3.48 -1.11,0.84 -2.62,1.25 -4.51,1.25 -1.31,0 -2.51,-0.23 -3.58,-0.71 -1.08,-0.48 -1.91,-1.14 -2.48,-1.98 -0.56,-0.84 -0.84,-1.81 -0.84,-2.91 0.35,0 3.17,0 3.53,0 0,1.89 1.12,2.83 3.37,2.83 0.84,0 1.49,-0.17 1.96,-0.51 0.47,-0.34 0.7,-0.82 0.7,-1.43 0,-0.66 -0.23,-1.17 -0.7,-1.52 z m 12.83,2.99 c 0.39,-0.35 0.6,-0.8 0.61,-1.37 0.32,0 2.86,0 3.18,0 -0.01,0.86 -0.24,1.65 -0.71,2.36 -0.46,0.72 -1.09,1.27 -1.89,1.67 -0.8,0.39 -1.68,0.58 -2.65,0.58 -1.81,0 -3.24,-0.57 -4.29,-1.72 -1.05,-1.15 -1.57,-2.75 -1.57,-4.78 0,-0.02 0,-0.2 0,-0.22 0,-1.96 0.52,-3.51 1.56,-4.68 1.04,-1.16 2.46,-1.74 4.28,-1.74 1.58,0 2.85,0.45 3.8,1.36 0.97,0.89 1.45,2.09 1.47,3.59 -0.32,0 -2.86,0 -3.18,0 -0.01,-0.65 -0.22,-1.18 -0.61,-1.59 -0.39,-0.41 -0.9,-0.62 -1.54,-0.62 -0.79,0 -1.39,0.29 -1.8,0.87 -0.39,0.57 -0.59,1.5 -0.59,2.78 0,0.04 0,0.32 0,0.36 0,1.3 0.2,2.24 0.59,2.81 0.4,0.57 1.01,0.85 1.82,0.85 0.63,0 1.13,-0.17 1.52,-0.51 z m 12.05,-9.9 c 2.75,0 4.15,1.59 4.19,4.79 0,0.54 0,3.25 0,8.12 h -3.39 c 0,-4.82 0,-7.49 0,-8.03 0,-0.72 -0.16,-1.26 -0.47,-1.6 -0.31,-0.35 -0.83,-0.53 -1.56,-0.53 -0.99,0 -1.71,0.38 -2.15,1.15 0,0.6 0,3.6 0,9.01 h -3.39 v -18 h 3.39 v 6.7 c 1.35,-1.08 2.48,-1.61 3.38,-1.61 z m 7.67,11.43 c -1.16,-1.14 -1.74,-2.66 -1.74,-4.56 0,-0.03 0,-0.29 0,-0.32 0,-1.28 0.24,-2.41 0.73,-3.41 0.5,-1.01 1.19,-1.78 2.09,-2.32 0.91,-0.55 1.94,-0.82 3.09,-0.82 1.74,0 3.1,0.54 4.09,1.64 1,1.09 1.5,2.64 1.5,4.65 0,0.09 0,0.55 0,1.38 -4.84,0 -7.53,0 -8.07,0 0.11,0.83 0.44,1.49 0.98,1.99 0.56,0.5 1.26,0.75 2.1,0.75 1.31,0 2.33,-0.47 3.06,-1.41 0.17,0.18 1.5,1.67 1.66,1.86 -0.5,0.72 -1.19,1.28 -2.06,1.69 -0.87,0.4 -1.83,0.59 -2.88,0.59 -1.86,0 -3.38,-0.57 -4.55,-1.71 z m 2.52,-8.01 c -0.41,0.45 -0.68,1.1 -0.8,1.94 0.32,0 1.89,0 4.71,0 0,-0.16 0,-0.25 0,-0.27 -0.01,-0.75 -0.21,-1.32 -0.6,-1.73 -0.4,-0.41 -0.95,-0.62 -1.67,-0.62 -0.67,0 -1.22,0.22 -1.64,0.68 z m 9.61,-1.67 c 0.89,-1.17 2.11,-1.75 3.65,-1.75 1.23,0 2.25,0.46 3.06,1.38 0,-0.43 0,-2.59 0,-6.47 h 3.4 v 18 h -3.06 c -0.1,-0.81 -0.16,-1.26 -0.17,-1.35 -0.84,1.06 -1.93,1.58 -3.26,1.58 -1.49,0 -2.69,-0.58 -3.59,-1.75 -0.9,-1.18 -1.35,-2.82 -1.35,-4.91 0,-1.98 0.44,-3.55 1.32,-4.73 z m 2.69,7.7 c 0.41,0.64 1.01,0.95 1.8,0.95 1.05,0 1.79,-0.44 2.22,-1.32 0,-0.5 0,-4.51 0,-5.01 -0.43,-0.88 -1.16,-1.32 -2.19,-1.32 -1.64,0 -2.45,1.32 -2.45,3.97 0,1.19 0.2,2.1 0.62,2.73 z m 13.81,3.69 c -1.36,0 -2.4,-0.39 -3.12,-1.17 -0.71,-0.78 -1.08,-1.92 -1.09,-3.43 0,-0.56 0,-3.32 0,-8.31 h 3.38 c 0,4.92 0,7.65 0,8.19 0,1.32 0.61,1.98 1.81,1.98 1.15,0 1.94,-0.4 2.37,-1.19 0,-0.6 0,-3.59 0,-8.98 h 3.4 V 53.5 h -3.19 l -0.1,-1.29 c -1.32,1.02 -2.48,1.52 -3.46,1.52 z m 9.12,-0.23 v -18 h 3.39 v 18 z m 7.12,-1.48 c -1.16,-1.14 -1.74,-2.66 -1.74,-4.56 0,-0.03 0,-0.29 0,-0.32 0,-1.28 0.24,-2.41 0.74,-3.41 0.49,-1.01 1.18,-1.78 2.08,-2.32 0.91,-0.55 1.94,-0.82 3.1,-0.82 1.73,0 3.09,0.54 4.09,1.64 1,1.09 1.5,2.64 1.5,4.65 0,0.09 0,0.55 0,1.38 -4.85,0 -7.54,0 -8.08,0 0.11,0.83 0.44,1.49 0.99,1.99 0.55,0.5 1.25,0.75 2.09,0.75 1.31,0 2.33,-0.47 3.06,-1.41 0.17,0.18 1.5,1.67 1.67,1.86 -0.51,0.72 -1.2,1.28 -2.07,1.69 -0.86,0.4 -1.82,0.59 -2.88,0.59 -1.86,0 -3.37,-0.57 -4.55,-1.71 z m 2.52,-8.01 c -0.41,0.45 -0.68,1.1 -0.79,1.94 0.31,0 1.88,0 4.71,0 0,-0.16 0,-0.25 0,-0.27 -0.02,-0.75 -0.22,-1.32 -0.61,-1.73 -0.39,-0.41 -0.95,-0.62 -1.67,-0.62 -0.67,0 -1.21,0.22 -1.64,0.68 z m 14.73,-0.11 c -1.29,0 -2.13,0.44 -2.52,1.3 0,0.56 0,3.32 0,8.3 h -3.39 V 40.82 h 3.2 c 0.05,0.91 0.09,1.41 0.09,1.51 0.68,-1.16 1.62,-1.74 2.83,-1.74 0.37,0 0.72,0.05 1.05,0.15 0,0.22 -0.02,1.3 -0.05,3.26 -0.57,-0.07 -0.98,-0.1 -1.21,-0.1 z"
       id="b59aVC3oa" />
  </defs>
  <g
     id="g31"
     transform="translate(-8.5803499,-11.94)">
    <g
       id="g13">
      <path
         d="m 0.55623076,48.966353 30.08000024,-27.23 10.27,9.92 5.02,-4.15 c 3.01,3.32 4.69,5.16 5.02,5.53 0,0 10.53,-8.31 14.17,-16.15 0,0 13.7,11.08 30.6,0 1.4,0 8.419999,0 21.059999,0 l 2.73,5.07 3.66,-2.31 6.85,4.56 18.73,-9.22 10.52,8.77 10.53,-4.56 11.88,10.15 4.51,-2.77 11.88,11.54 12.33,-3.69 7.76,6 -7.31,-2.77 8.68,5.08 v 1.84 l -16.44,-1.39 -15.98,-6.45 10.96,12 -19.11,-12 3.16,8.26 -14.17,-14.31 h -10.96 l -11.42,-12.01 -17.35,8.31 -5.47,-4.55 -2.74,1.83 15.53,15.7 -19.64,-10.64 15.51,21.75 -27.87,-22.61 1.82,13.39 -20.089999,-17.54 -16.9,-1.84 12.78,25.38 -22.38,-16.61 -5.47,4.56 -7.31,-4.56 -0.92,6 -12.78,-12 -5.47,3.69 -0.92,7.84 h -8.23 l 6.64,12.19 z"
         id="use7"
         style="fill:#5ba7e6;fill-opacity:1" />
      <g
         id="g11">
        <use
           xlink:href="#b3edbKIGNV"
           opacity="1"
           fill-opacity="0"
           stroke="#000000"
           stroke-width="1"
           stroke-opacity="0"
           id="use9"
           x="0"
           y="0"
           width="100%"
           height="100%" />
      </g>
    </g>
    <g
       id="g29">
      <g
         id="g27">
        <use
           xlink:href="#b59aVC3oa"
           opacity="1"
           fill-opacity="0"
           stroke="#000000"
           stroke-width="1"
           stroke-opacity="0"
           id="use25"
           x="0"
           y="0"
           width="100%"
           height="100%" />
      </g>
    </g>
  </g>
</svg>
